<?xml version="1.0" standalone="no"?>
<!DOCTYPE svg PUBLIC "-//W3C//DTD SVG 20010904//EN"
 "http://www.w3.org/TR/2001/REC-SVG-20010904/DTD/svg10.dtd">
<svg version="1.0" xmlns="http://www.w3.org/2000/svg"
 width="371.000000pt" height="371.000000pt" viewBox="0 0 371.000000 371.000000"
 preserveAspectRatio="xMidYMid meet">
<metadata>
Created by potrace 1.14, written by Peter Selinger 2001-2017
</metadata>
<g transform="translate(0.000000,371.000000) scale(0.100000,-0.100000)"
fill="#000000" stroke="none">
<path d="M987 2834 c-2 -2 -21 -6 -42 -10 -104 -16 -254 -78 -354 -146 -60
-41 -191 -173 -227 -229 -38 -61 -84 -150 -84 -165 0 -10 37 -13 162 -12 l162
2 80 81 c62 62 99 89 156 116 243 116 503 70 686 -121 64 -66 108 -138 134
-215 26 -79 29 -94 35 -185 13 -191 34 -282 96 -405 154 -305 459 -496 794
-496 140 -1 290 31 380 79 17 9 33 16 37 17 19 1 151 96 207 149 170 162 263
365 277 604 l6 100 -384 1 -383 0 -147 -147 c-82 -81 -148 -149 -148 -152 0
-3 158 -5 350 -5 193 0 350 -3 350 -6 0 -4 -18 -34 -40 -67 -61 -90 -152 -169
-245 -213 -96 -44 -151 -57 -253 -57 -222 0 -422 125 -525 328 -48 94 -57 134
-72 325 -7 101 -16 147 -43 225 -103 301 -357 525 -672 591 -50 11 -285 21
-293 13z"/>
<path d="M2480 2832 c-200 -28 -388 -122 -529 -265 l-54 -55 21 -29 c35 -50
88 -156 112 -226 l24 -68 23 44 c12 24 46 70 74 101 189 207 475 258 720 130
61 -33 156 -113 200 -170 16 -20 25 -21 183 -21 91 0 166 4 166 9 0 5 -12 32
-26 61 -126 248 -369 431 -644 483 -32 6 -237 11 -270 6z"/>
<path d="M213 1892 c5 -97 23 -194 46 -247 45 -105 62 -139 103 -200 127 -193
350 -344 558 -379 19 -3 46 -8 60 -11 54 -11 230 -5 305 10 177 37 370 147
480 273 l29 34 -18 32 c-55 93 -81 145 -105 213 l-27 74 -37 -59 c-116 -187
-328 -296 -548 -279 -200 16 -365 122 -477 307 l-21 35 206 0 206 0 148 148
c82 82 149 150 149 152 0 2 -239 3 -531 3 l-532 0 6 -106z"/>
</g>
</svg>
